<svg xmlns="http://www.w3.org/2000/svg" viewBox="0 0 455.55 96.5"><title>Ativo 10</title><g id="Camada_2" data-name="Camada 2"><g id="Camada_1-2" data-name="Camada 1"><path d="M14.69,91.66a30.09,30.09,0,0,1-11-12.81,42.1,42.1,0,0,1,0-34.36,30.83,30.83,0,0,1,11-13q7.29-4.94,17.78-4.94a31.31,31.31,0,0,1,17.75,5q7.53,5,11.3,14.83l-15.6,6.05a15.4,15.4,0,0,0-4.94-8,12.8,12.8,0,0,0-8.51-3,13.7,13.7,0,0,0-8.91,2.86,16.53,16.53,0,0,0-5.18,7.46,31.08,31.08,0,0,0,0,19.87,15.69,15.69,0,0,0,5.14,7.26,14.14,14.14,0,0,0,9,2.76,13.1,13.1,0,0,0,8.47-2.92,14.74,14.74,0,0,0,5-7.77L60.78,76.6A28.84,28.84,0,0,1,32.54,96.5Q22.05,96.5,14.69,91.66Z"/><path d="M77.18,87.54q-6.05-8.74-6.05-24.41V27.77H87.73v35.9a39.2,39.2,0,0,0,1,9.75,10.7,10.7,0,0,0,3.66,5.92q2.65,2.08,7.5,2.08a14,14,0,0,0,11.19-5.08q4.34-5.08,4.34-18.32V27.77h16.67V94.93H115.43V87.07A22.38,22.38,0,0,1,106.79,94,27,27,0,0,1,95.6,96.28Q83.23,96.28,77.18,87.54Z"/><path d="M168.17,94.39a20.21,20.21,0,0,1-8.44-6.07V95H142.79V.27h16.94V34.74A20.17,20.17,0,0,1,168,28.6a28.15,28.15,0,0,1,10.62-2,26.12,26.12,0,0,1,15.7,4.73,29.58,29.58,0,0,1,10,12.67,44,44,0,0,1,3.4,17.47,44.08,44.08,0,0,1-3.4,17.44,29.75,29.75,0,0,1-9.88,12.71,25.6,25.6,0,0,1-15.5,4.73A29.28,29.28,0,0,1,168.17,94.39ZM187,75.81q4.1-5.47,4.1-14.32T187,47q-4.13-5.6-12.2-5.6T162.45,47q-4.2,5.57-4.2,14.49t4.2,14.32q4.2,5.47,12.34,5.47T187,75.81Z"/><rect x="218.44" y="27.69" width="16.27" height="67.17"/><path d="M260,91.66a30.09,30.09,0,0,1-11-12.81,42.1,42.1,0,0,1,0-34.36,30.83,30.83,0,0,1,11-13q7.29-4.94,17.78-4.94a31.31,31.31,0,0,1,17.75,5q7.53,5,11.3,14.83l-15.6,6.05a15.4,15.4,0,0,0-4.94-8,12.8,12.8,0,0,0-8.51-3,13.7,13.7,0,0,0-8.91,2.86,16.53,16.53,0,0,0-5.18,7.46,31.08,31.08,0,0,0,0,19.87,15.69,15.69,0,0,0,5.14,7.26,14.14,14.14,0,0,0,9,2.76,13.1,13.1,0,0,0,8.47-2.92,14.74,14.74,0,0,0,5-7.77l14.93,5.65a28.84,28.84,0,0,1-28.24,19.9Q267.36,96.5,260,91.66Z"/><path d="M332.64,91.76A32.68,32.68,0,0,1,320.47,79a36.64,36.64,0,0,1-4.3-17.58A36.11,36.11,0,0,1,320.47,44a32.57,32.57,0,0,1,12.17-12.67,36.59,36.59,0,0,1,35.9,0A32.58,32.58,0,0,1,380.72,44,36.13,36.13,0,0,1,385,61.4,36.65,36.65,0,0,1,380.72,79a32.69,32.69,0,0,1-12.17,12.77,36.36,36.36,0,0,1-35.9,0Zm27.77-12.24a16.5,16.5,0,0,0,5.71-7.6,29.21,29.21,0,0,0,1.82-10.52q0-9-4.27-14.83t-13.08-5.82a16.45,16.45,0,0,0-9.82,2.79A16.15,16.15,0,0,0,335.06,51a28.4,28.4,0,0,0-1.82,10.42,29.21,29.21,0,0,0,1.82,10.52,16.49,16.49,0,0,0,5.71,7.6,18.29,18.29,0,0,0,19.63,0Z"/><path d="M395.11,27.8h16.27v7.8a24.1,24.1,0,0,1,9.14-6.93,26.84,26.84,0,0,1,10.69-2.29q8.34,0,13.82,4a22.87,22.87,0,0,1,8,10.39,37.65,37.65,0,0,1,2.52,13.88V95h-16.2V56.71q0-6.79-3.36-11t-9.48-4.2q-7.19,0-11.16,4.1t-4,12.57V95H395.11Z"/><rect x="218.4" width="16.46" height="15.68"/></g></g></svg>